<svg width="4000" height="1496" viewBox="0 0 4000 1496" fill="none" xmlns="http://www.w3.org/2000/svg">
<path d="M342.271 418.049C331.752 424.508 318.112 421.042 311.763 410.297C305.454 399.527 308.839 385.561 319.334 379.061L445.376 301.543V218.097L342.271 281.48C331.694 287.9 318.037 284.327 311.763 273.5C305.454 262.73 308.839 248.765 319.334 242.265L445.376 164.747V148.103C445.341 122.214 431.033 98.564 408.41 87.0004L252.528 7.20232C233.74 -2.40077 211.636 -2.40077 192.848 7.20232L36.9662 87.0004C14.3426 98.564 0.0345809 122.214 0 148.103V398.897C0.0345809 424.786 14.3426 448.436 36.9662 460L192.848 539.798C211.636 549.401 233.74 549.401 252.528 539.798L408.41 460C431.033 448.436 445.341 424.786 445.376 398.897V354.894L342.271 418.049Z" transform="translate(204 150) scale(2)" fill="#8985DB"/>
<path d="M0 1.41604V234.312H40.093V1.41604H0Z" transform="translate(1189.23 478.201) scale(2)" fill="#8985DB"/>
<path d="M89.6424 70.052V156.347C89.6424 207.324 118.138 236.977 157.237 236.977C180.1 236.977 195.674 228.981 212.572 212.322L215.223 234.645H251.34V70.052H211.247V154.015C211.247 179.003 194.348 199.994 169.497 199.994C143.652 199.994 130.067 181.002 130.067 156.014V70.052H89.6424Z" transform="translate(1189.23 478.201) scale(2)" fill="#8985DB"/>
<path d="M413.247 186.667C403.307 196.662 390.384 200.327 377.462 200.327C352.279 200.327 331.073 183.668 331.073 152.349C331.073 123.695 350.954 103.704 378.124 103.704C389.39 103.704 401.319 108.035 410.928 116.698L436.441 89.7099C418.549 72.0512 400.656 65.3875 377.462 65.3875C330.079 65.3875 290.649 94.0413 290.649 152.349C290.649 210.656 330.079 239.31 377.462 239.31C401.65 239.31 421.531 231.98 440.418 213.321L413.247 186.667Z" transform="translate(1189.23 478.201) scale(2)" fill="#8985DB"/>
<path d="M511.844 69.3857V234.312H471.419V69.3857H511.844ZM467.774 23.7394C467.774 55.3919 515.488 55.3919 515.488 23.7394C515.488 -7.91313 467.774 -7.91313 467.774 23.7394Z" transform="translate(1189.23 478.201) scale(2)" fill="#8985DB"/>
<path d="M640.878 104.037C666.391 104.037 688.26 123.362 688.26 152.015C688.26 181.669 666.391 200.327 640.878 200.327C615.032 200.327 594.489 180.669 594.489 152.015C594.489 122.362 615.032 104.037 640.878 104.037ZM690.911 1.41604V92.3754C681.302 75.383 654.463 66.0538 637.233 66.0538C589.519 66.0538 554.065 95.3741 554.065 152.015C554.065 205.991 590.181 237.977 638.227 237.977C658.108 237.977 678.32 231.313 690.911 211.655L693.562 234.312H731.335V1.41604H690.911Z" transform="translate(1189.23 478.201) scale(2)" fill="#8985DB"/>
<path d="M907.998 92.7086C898.72 76.3825 877.845 66.0538 855.976 66.0538C808.262 65.7206 770.82 95.3741 770.82 152.015C770.82 209.656 806.606 239.643 854.982 239.31C873.206 238.977 898.72 229.647 907.998 210.323L909.986 234.312H948.091V70.052H909.323L907.998 92.7086ZM859.621 102.371C923.24 102.371 923.24 201.993 859.621 201.993C832.782 201.993 811.244 183.335 811.244 152.015C811.244 120.696 832.782 102.371 859.621 102.371Z" transform="translate(1189.23 478.201) scale(2)" fill="#8985DB"/>
<path d="M1005.03 28.0708V70.3852H974.547V105.37H1005.03V176.338C1005.03 217.32 1028.23 237.644 1063.68 236.311C1075.94 235.978 1085.55 233.979 1097.15 229.314L1085.88 194.663C1079.92 197.662 1072.63 199.661 1066.33 199.661C1053.74 199.661 1045.12 191.998 1045.12 176.338V105.37H1090.52V70.3852H1045.46V23.7394L1005.03 28.0708Z" transform="translate(1189.23 478.201) scale(2)" fill="#8985DB"/>
<path d="M1262.29 92.7086C1253.02 76.3825 1232.14 66.0538 1210.27 66.0538C1162.56 65.7206 1125.12 95.3741 1125.12 152.015C1125.12 209.656 1160.9 239.643 1209.28 239.31C1227.5 238.977 1253.02 229.647 1262.29 210.323L1264.28 234.312H1302.39V70.052H1263.62L1262.29 92.7086ZM1213.92 102.371C1277.54 102.371 1277.54 201.993 1213.92 201.993C1187.08 201.993 1165.54 183.335 1165.54 152.015C1165.54 120.696 1187.08 102.371 1213.92 102.371Z" transform="translate(1189.23 478.201) scale(2)" fill="#8985DB"/>
</svg>
